<svg width="34" height="24" viewBox="0 0 34 24" fill="none" xmlns="http://www.w3.org/2000/svg">
<path d="M0 0H3.4V3.42857H0V0Z" fill="white"/>
<path d="M6.8 6.85714H3.4V3.42857H6.8V6.85714Z" fill="white"/>
<path d="M13.6 13.7143H10.2V17.1429H13.6V13.7143Z" fill="white"/>
<path d="M20.4 13.7143H23.8V17.1429H20.4V13.7143Z" fill="white"/>
<path fill-rule="evenodd" clip-rule="evenodd" d="M10.2 6.85714H6.8V10.2857H3.4V13.7143H0V24H34V13.7143H30.6V10.2857H27.2V6.85714H30.6V3.42857H34V0H30.6V3.42857H27.2V6.85714H23.8V3.42857H10.2V6.85714ZM10.2 6.85714H23.8V10.2857H27.2V13.7143H30.6V20.5714H3.4V13.7143H6.8V10.2857H10.2V6.85714Z" fill="white"/>
</svg>
